<?xml version="1.0" encoding="utf-8"?>
<!-- Generator: Adobe Illustrator 23.1.0, SVG Export Plug-In . SVG Version: 6.00 Build 0)  -->
<svg version="1.1" id="Capa_1" xmlns="http://www.w3.org/2000/svg" xmlns:xlink="http://www.w3.org/1999/xlink" x="0px" y="0px"
	 viewBox="0 0 1200 768" style="enable-background:new 0 0 1200 768;" xml:space="preserve">
<style type="text/css">
	.st0{fill:none;stroke:#BFD464;stroke-width:4;}
	.st1{fill:#432A83;}
	.st2{fill:#FFFFFF;}
	.st3{fill:url(#SVGID_1_);}
	.st4{fill:url(#SVGID_2_);}
	.st5{fill:url(#SVGID_3_);}
	.st6{fill:url(#SVGID_4_);}
	.st7{fill:url(#SVGID_5_);}
	.st8{fill:url(#SVGID_6_);}
	.st9{fill:#FFED00;}
	.st10{fill:url(#SVGID_7_);}
	.st11{fill:none;stroke:#FFFFFF;stroke-width:1.2769;}
	.st12{fill:url(#SVGID_8_);}
	.st13{fill:url(#SVGID_9_);}
	.st14{fill:url(#SVGID_10_);}
	.st15{fill:url(#SVGID_11_);}
	.st16{fill:url(#SVGID_12_);}
	.st17{fill:url(#SVGID_13_);}
	.st18{fill:url(#SVGID_14_);}
	.st19{fill:url(#SVGID_15_);}
</style>
<symbol  id="ﾃ》omo_1" viewBox="-41.96 -41.85 83.92 83.7">
	<path class="st0" d="M36.09-8.01c2.9,2.75,3.7,5.67,3.7,8.01c0,2.36-0.82,5.32-3.8,8.1c1.89,3.73,3.24,7.64,3.24,11.22
		c0,2.9-0.88,5.58-3.07,7.76c-3.51,3.51-8.54,4.04-14.99,1.63c-2.89,7.39-7.07,11.14-12.48,11.14h0c-5.18,0-9.22-3.47-12.09-10.27
		l-0.24,0.16l-0.06-0.29c-6.83,2.77-12.15,2.39-15.81-1.27c-2.08-2.08-3.12-4.68-3.12-7.8c0-1.76,0.4-3.71,1.06-5.79
		C-33.44,11.86-39.96,6.84-39.96,0c0-6.77,6.38-11.76,18.04-14.5c-0.93-2.54-1.43-4.88-1.43-6.97c0-3.12,1.04-5.73,3.12-7.81
		c3.88-3.87,9.61-4.05,17.02-0.74c2.86-6.51,6.84-9.84,11.9-9.84c5.24,0,9.31,3.54,12.19,10.48c6.93-2.86,12.31-2.5,16.01,1.19
		c1.69,1.69,3.07,4.18,3.07,7.82C39.96-17.2,38.89-13.14,36.09-8.01z M36.09-8.01c2.9,2.75,3.7,5.67,3.7,8.01
		c0,2.36-0.82,5.32-3.8,8.1c1.89,3.73,3.24,7.64,3.24,11.22c0,2.9-0.88,5.58-3.07,7.76c-3.51,3.51-8.54,4.04-14.99,1.63
		c-2.89,7.39-7.07,11.14-12.48,11.14h0c-5.18,0-9.22-3.47-12.09-10.27l-0.24,0.16l-0.06-0.29c-6.83,2.77-12.15,2.39-15.81-1.27
		c-2.08-2.08-3.12-4.68-3.12-7.8c0-1.76,0.4-3.71,1.06-5.79C-33.44,11.86-39.96,6.84-39.96,0c0-6.77,6.38-11.76,18.04-14.5
		c-0.93-2.54-1.43-4.88-1.43-6.97c0-3.12,1.04-5.73,3.12-7.81c3.88-3.87,9.61-4.05,17.02-0.74c2.86-6.51,6.84-9.84,11.9-9.84
		c5.24,0,9.31,3.54,12.19,10.48c6.93-2.86,12.31-2.5,16.01,1.19c1.69,1.69,3.07,4.18,3.07,7.82C39.96-17.2,38.89-13.14,36.09-8.01z
		 M36.09-8.01c2.9,2.75,3.7,5.67,3.7,8.01c0,2.36-0.82,5.32-3.8,8.1c1.89,3.73,3.24,7.64,3.24,11.22c0,2.9-0.88,5.58-3.07,7.76
		c-3.51,3.51-8.54,4.04-14.99,1.63c-2.89,7.39-7.07,11.14-12.48,11.14h0c-5.18,0-9.22-3.47-12.09-10.27l-0.24,0.16l-0.06-0.29
		c-6.83,2.77-12.15,2.39-15.81-1.27c-2.08-2.08-3.12-4.68-3.12-7.8c0-1.76,0.4-3.71,1.06-5.79C-33.44,11.86-39.96,6.84-39.96,0
		c0-6.77,6.38-11.76,18.04-14.5c-0.93-2.54-1.43-4.88-1.43-6.97c0-3.12,1.04-5.73,3.12-7.81c3.88-3.87,9.61-4.05,17.02-0.74
		c2.86-6.51,6.84-9.84,11.9-9.84c5.24,0,9.31,3.54,12.19,10.48c6.93-2.86,12.31-2.5,16.01,1.19c1.69,1.69,3.07,4.18,3.07,7.82
		C39.96-17.2,38.89-13.14,36.09-8.01z M7.91-1.25C7.59-0.95,7.53-0.9,7.26-0.64C7.25-0.23,7.25-0.2,7.24,0.18
		c0.32,0.3,0.64,0.6,0.97,0.89c0.04,0,0.08,0.03,0.13,0.03c0.71,0,1.28-0.57,1.28-1.28c0-0.4-0.2-0.74-0.49-0.98
		C8.72-1.19,8.32-1.23,7.91-1.25z"/>
	<path class="st1" d="M36.09-8.01c2.9,2.75,3.7,5.67,3.7,8.01c0,2.36-0.82,5.32-3.8,8.1c1.89,3.73,3.24,7.64,3.24,11.22
		c0,2.9-0.88,5.58-3.07,7.76c-3.51,3.51-8.54,4.04-14.99,1.63c-2.89,7.39-7.07,11.14-12.48,11.14h0c-5.18,0-9.22-3.47-12.09-10.27
		l-0.24,0.16l-0.06-0.29c-6.83,2.77-12.15,2.39-15.81-1.27c-2.08-2.08-3.12-4.68-3.12-7.8c0-1.76,0.4-3.71,1.06-5.79
		C-33.44,11.86-39.96,6.84-39.96,0c0-6.77,6.38-11.76,18.04-14.5c-0.93-2.54-1.43-4.88-1.43-6.97c0-3.12,1.04-5.73,3.12-7.81
		c3.88-3.87,9.61-4.05,17.02-0.74c2.86-6.51,6.84-9.84,11.9-9.84c5.24,0,9.31,3.54,12.19,10.48c6.93-2.86,12.31-2.5,16.01,1.19
		c1.69,1.69,3.07,4.18,3.07,7.82C39.96-17.2,38.89-13.14,36.09-8.01z M36.09-8.01c2.9,2.75,3.7,5.67,3.7,8.01
		c0,2.36-0.82,5.32-3.8,8.1c1.89,3.73,3.24,7.64,3.24,11.22c0,2.9-0.88,5.58-3.07,7.76c-3.51,3.51-8.54,4.04-14.99,1.63
		c-2.89,7.39-7.07,11.14-12.48,11.14h0c-5.18,0-9.22-3.47-12.09-10.27l-0.24,0.16l-0.06-0.29c-6.83,2.77-12.15,2.39-15.81-1.27
		c-2.08-2.08-3.12-4.68-3.12-7.8c0-1.76,0.4-3.71,1.06-5.79C-33.44,11.86-39.96,6.84-39.96,0c0-6.77,6.38-11.76,18.04-14.5
		c-0.93-2.54-1.43-4.88-1.43-6.97c0-3.12,1.04-5.73,3.12-7.81c3.88-3.87,9.61-4.05,17.02-0.74c2.86-6.51,6.84-9.84,11.9-9.84
		c5.24,0,9.31,3.54,12.19,10.48c6.93-2.86,12.31-2.5,16.01,1.19c1.69,1.69,3.07,4.18,3.07,7.82C39.96-17.2,38.89-13.14,36.09-8.01z
		 M36.09-8.01c2.9,2.75,3.7,5.67,3.7,8.01c0,2.36-0.82,5.32-3.8,8.1c1.89,3.73,3.24,7.64,3.24,11.22c0,2.9-0.88,5.58-3.07,7.76
		c-3.51,3.51-8.54,4.04-14.99,1.63c-2.89,7.39-7.07,11.14-12.48,11.14h0c-5.18,0-9.22-3.47-12.09-10.27l-0.24,0.16l-0.06-0.29
		c-6.83,2.77-12.15,2.39-15.81-1.27c-2.08-2.08-3.12-4.68-3.12-7.8c0-1.76,0.4-3.71,1.06-5.79C-33.44,11.86-39.96,6.84-39.96,0
		c0-6.77,6.38-11.76,18.04-14.5c-0.93-2.54-1.43-4.88-1.43-6.97c0-3.12,1.04-5.73,3.12-7.81c3.88-3.87,9.61-4.05,17.02-0.74
		c2.86-6.51,6.84-9.84,11.9-9.84c5.24,0,9.31,3.54,12.19,10.48c6.93-2.86,12.31-2.5,16.01,1.19c1.69,1.69,3.07,4.18,3.07,7.82
		C39.96-17.2,38.89-13.14,36.09-8.01z M7.91-1.25C7.59-0.95,7.53-0.9,7.26-0.64C7.25-0.23,7.25-0.2,7.24,0.18
		c0.32,0.3,0.64,0.6,0.97,0.89c0.04,0,0.08,0.03,0.13,0.03c0.71,0,1.28-0.57,1.28-1.28c0-0.4-0.2-0.74-0.49-0.98
		C8.72-1.19,8.32-1.23,7.91-1.25z"/>
	<g>
		<path class="st2" d="M-0.08-9.68C18-9.68,32.66-5.35,32.66,0c0,5.35-14.66,9.68-32.75,9.68c-18.09,0-32.75-4.34-32.75-9.68
			C-32.83-5.35-18.17-9.68-0.08-9.68z M2.08,8.64c16.14,0,29.23-3.87,29.23-8.64c0-4.77-13.09-8.64-29.23-8.64
			c-16.14,0-29.23,3.87-29.23,8.64C-27.15,4.77-14.06,8.64,2.08,8.64z"/>
		<path class="st2" d="M15.55,6.85C2.76,19.63-10.68,26.92-14.46,23.14c-3.78-3.78,3.52-17.21,16.3-29.99
			c12.79-12.78,26.22-20.08,30.01-16.29C35.64-19.36,28.34-5.93,15.55,6.85z M1.05-4.58C-10.36,6.83-16.88,18.81-13.5,22.19
			c3.38,3.38,15.37-3.14,26.78-14.54C24.69-3.76,31.21-15.75,27.83-19.12C24.46-22.5,12.46-15.99,1.05-4.58z"/>
		<path class="st2" d="M18.39,0c0,18.08-4.34,32.73-9.69,32.73C3.35,32.73-0.99,18.08-0.99,0c0-18.08,4.34-32.73,9.69-32.73
			C14.05-32.73,18.39-18.07,18.39,0z M0.05,2.16c0,16.13,3.87,29.21,8.65,29.21c4.78,0,8.65-13.08,8.65-29.21
			c0-16.13-3.87-29.21-8.65-29.21C3.92-27.05,0.05-13.97,0.05,2.16z"/>
		<path class="st2" d="M1.12,5.75C-11.67-7.03-18.97-20.46-15.19-24.24c3.78-3.78,17.22,3.51,30.01,16.29
			c12.79,12.78,20.09,26.21,16.3,29.99C27.34,25.83,13.9,18.53,1.12,5.75z M12.55-8.74C1.14-20.15-10.86-26.66-14.23-23.28
			c-3.38,3.37,3.14,15.36,14.55,26.77c11.41,11.41,23.4,17.92,26.78,14.54C30.48,14.66,23.96,2.67,12.55-8.74z"/>
		<path class="st2" d="M-0.08-9.68C18-9.68,32.66-5.35,32.66,0c0,5.35-14.66,9.68-32.75,9.68c-18.09,0-32.75-4.34-32.75-9.68
			C-32.83-5.35-18.17-9.68-0.08-9.68z M2.08,8.64c16.14,0,29.23-3.87,29.23-8.64c0-4.77-13.09-8.64-29.23-8.64
			c-16.14,0-29.23,3.87-29.23,8.64C-27.15,4.77-14.06,8.64,2.08,8.64z"/>
		<path class="st2" d="M15.55,6.85C2.76,19.63-10.68,26.92-14.46,23.14c-3.78-3.78,3.52-17.21,16.3-29.99
			c12.79-12.78,26.22-20.08,30.01-16.29C35.64-19.36,28.34-5.93,15.55,6.85z M1.05-4.58C-10.36,6.83-16.88,18.81-13.5,22.19
			c3.38,3.38,15.37-3.14,26.78-14.54C24.69-3.76,31.21-15.75,27.83-19.12C24.46-22.5,12.46-15.99,1.05-4.58z"/>
		<path class="st2" d="M18.39,0c0,18.08-4.34,32.73-9.69,32.73C3.35,32.73-0.99,18.08-0.99,0c0-18.08,4.34-32.73,9.69-32.73
			C14.05-32.73,18.39-18.07,18.39,0z M0.05,2.16c0,16.13,3.87,29.21,8.65,29.21c4.78,0,8.65-13.08,8.65-29.21
			c0-16.13-3.87-29.21-8.65-29.21C3.92-27.05,0.05-13.97,0.05,2.16z"/>
		<path class="st2" d="M1.12,5.75C-11.67-7.03-18.97-20.46-15.19-24.24c3.78-3.78,17.22,3.51,30.01,16.29
			c12.79,12.78,20.09,26.21,16.3,29.99C27.34,25.83,13.9,18.53,1.12,5.75z M12.55-8.74C1.14-20.15-10.86-26.66-14.23-23.28
			c-3.38,3.37,3.14,15.36,14.55,26.77c11.41,11.41,23.4,17.92,26.78,14.54C30.48,14.66,23.96,2.67,12.55-8.74z"/>
		
			<radialGradient id="SVGID_1_" cx="11.2696" cy="3.0307" r="6.0776" gradientTransform="matrix(1.0004 0 0 0.9999 -3.4424 -1.2144)" gradientUnits="userSpaceOnUse">
			<stop  offset="0" style="stop-color:#EEEBE9"/>
			<stop  offset="0" style="stop-color:#F9F8F8"/>
			<stop  offset="0" style="stop-color:#FFFFFF"/>
			<stop  offset="0.1453" style="stop-color:#F0F0F0"/>
			<stop  offset="0.423" style="stop-color:#C9C9C9"/>
			<stop  offset="0.5225" style="stop-color:#BABABA"/>
			<stop  offset="0.599" style="stop-color:#B0B1B1"/>
			<stop  offset="0.7277" style="stop-color:#969899"/>
			<stop  offset="0.892" style="stop-color:#6C7171"/>
			<stop  offset="1" style="stop-color:#4C5354"/>
		</radialGradient>
		<path class="st3" d="M12.33-0.18c0-2.21-1.79-4-4-4c-2.21,0-4,1.79-4,4c0,2.21,1.79,4,4,4C10.54,3.81,12.33,2.02,12.33-0.18z"/>
	</g>
	
		<radialGradient id="SVGID_2_" cx="11.7536" cy="34.3559" r="3.0464" gradientTransform="matrix(1.0004 0 0 0.9999 -3.4424 -1.2144)" gradientUnits="userSpaceOnUse">
		<stop  offset="0" style="stop-color:#FFFAD2"/>
		<stop  offset="0.1146" style="stop-color:#FCF2C1"/>
		<stop  offset="0.3413" style="stop-color:#F3DF94"/>
		<stop  offset="0.3708" style="stop-color:#F2DC8E"/>
		<stop  offset="0.6854" style="stop-color:#F0BF00"/>
		<stop  offset="1" style="stop-color:#C9961A"/>
	</radialGradient>
	<path class="st4" d="M10.57,32.14c0-1.11-0.9-2-2-2c-1.11,0-2,0.9-2,2c0,1.11,0.9,2,2,2C9.67,34.14,10.57,33.24,10.57,32.14z"/>
	
		<radialGradient id="SVGID_3_" cx="-3.8481" cy="6.105" r="3.0467" gradientTransform="matrix(1.0004 0 0 0.9999 -3.4424 -1.2144)" gradientUnits="userSpaceOnUse">
		<stop  offset="0" style="stop-color:#FFFAD2"/>
		<stop  offset="0.1146" style="stop-color:#FCF2C1"/>
		<stop  offset="0.3413" style="stop-color:#F3DF94"/>
		<stop  offset="0.3708" style="stop-color:#F2DC8E"/>
		<stop  offset="0.6854" style="stop-color:#F0BF00"/>
		<stop  offset="1" style="stop-color:#C9961A"/>
	</radialGradient>
	<path class="st5" d="M-5.04,3.89c0-1.11-0.9-2-2-2c-1.11,0-2,0.9-2,2c0,1.11,0.9,2,2,2C-5.93,5.89-5.04,5-5.04,3.89z"/>
	
		<radialGradient id="SVGID_4_" cx="28.5155" cy="-3.4861" r="3.0471" gradientTransform="matrix(1.0004 0 0 0.9999 -3.4424 -1.2144)" gradientUnits="userSpaceOnUse">
		<stop  offset="0" style="stop-color:#FFFAD2"/>
		<stop  offset="0.1146" style="stop-color:#FCF2C1"/>
		<stop  offset="0.3413" style="stop-color:#F3DF94"/>
		<stop  offset="0.3708" style="stop-color:#F2DC8E"/>
		<stop  offset="0.6854" style="stop-color:#F0BF00"/>
		<stop  offset="1" style="stop-color:#C9961A"/>
	</radialGradient>
	<path class="st6" d="M27.34-5.7c0-1.11-0.9-2-2-2c-1.11,0-2,0.9-2,2c0,1.11,0.9,2,2,2C26.44-3.7,27.34-4.6,27.34-5.7z"/>
	
		<radialGradient id="SVGID_5_" cx="-5.323" cy="-21.7233" r="3.045" gradientTransform="matrix(1.0004 0 0 0.9999 -3.4424 -1.2144)" gradientUnits="userSpaceOnUse">
		<stop  offset="0" style="stop-color:#FFFAD2"/>
		<stop  offset="0.1146" style="stop-color:#FCF2C1"/>
		<stop  offset="0.3413" style="stop-color:#F3DF94"/>
		<stop  offset="0.3708" style="stop-color:#F2DC8E"/>
		<stop  offset="0.6854" style="stop-color:#F0BF00"/>
		<stop  offset="1" style="stop-color:#C9961A"/>
	</radialGradient>
	<path class="st7" d="M-6.51-23.94c0-1.11-0.9-2-2-2c-1.11,0-2,0.9-2,2c0,1.11,0.9,2,2,2C-7.41-21.93-6.51-22.83-6.51-23.94z"/>
</symbol>
<symbol  id="ﾃ》omo_2" viewBox="-47.02 -37.08 94.03 74.16">
	
		<radialGradient id="SVGID_6_" cx="-10.9301" cy="3.6038" r="24.0855" gradientTransform="matrix(0.9999 0 0 0.9996 0.7166 -3.3721)" gradientUnits="userSpaceOnUse">
		<stop  offset="0" style="stop-color:#FFED00"/>
		<stop  offset="0.1124" style="stop-color:#E30613"/>
		<stop  offset="0.3933" style="stop-color:#E6007E"/>
		<stop  offset="1" style="stop-color:#97271B"/>
	</radialGradient>
	<path class="st8" d="M47.02-1.14c0,9.34-13.19,13.66-24.61,15.65c2.4,4.88,3.34,8.7,3.34,11.65c0,3.44-1.23,5.73-2.75,7.25
		c-1.49,1.48-4.1,2.99-8.39,2.7c-1.12,0.63-2.4,0.97-3.74,0.97c-3.04,0-5.66-1.8-6.89-4.37c-4.72-2.34-10.03-5.85-15.46-10.23
		c-9.09,7.05-25.02,17.29-32.78,9.53c-1.84-1.84-2.76-4.27-2.76-7.23c0-4.41,2.16-10.05,6.19-16.66c-4.76-3.19-5.95-6.67-5.95-9.26
		c0-3.61,2.03-6.72,5.98-9.32c-3.47-5.98-5.28-11.12-5.28-15.2c0-2.96,0.92-5.39,2.76-7.23c7.54-7.54,22.94,2.08,31.79,8.78
		c9.27-7.33,25.66-18.12,33.6-10.18c1.87,1.87,2.8,4.29,2.8,7.24c0,2.88-0.98,6.32-2.75,10.21C33.61-14.87,47.02-10.56,47.02-1.14z
		 M-22.5-16.71c-3.81-2.21-6.54-3.18-8.03-3.41c0.14,0.95,0.55,2.49,1.65,4.81C-26.88-15.84-24.76-16.31-22.5-16.71z M13.19,0.3
		c0.79,1.01,1.51,2.01,2.24,3.02c7.6-1.34,11.88-3.23,13.52-4.45C27.4-2.3,23.5-4.07,16.59-5.4C16.36-3.02,15.09-0.95,13.19,0.3z
		 M10.41,15.92c-3.38,0.25-6.81,0.41-10.29,0.41c0,0-0.82-0.02-1.17-0.03c3.32,2.51,6.48,4.54,9.31,5.98
		c0.83-0.31,1.71-0.53,2.62-0.53c0.93,0,1.81,0.19,2.63,0.49C12.96,20.69,12.01,18.6,10.41,15.92z M-28.96,12.96
		c-0.03,0.02-0.06,0.03-0.1,0.04c-1.6,3.06-2.25,5.12-2.41,6.25c1.75-0.26,5.18-1.53,10.1-4.66C-24.07,14.13-26.6,13.59-28.96,12.96
		z M0.12-18.6c3.44,0,6.83,0.16,10.17,0.4c2-3.58,2.74-5.95,2.93-7.22c-2.14,0.29-6.75,2.12-13.33,6.83
		C-0.1-18.6,0.12-18.6,0.12-18.6z"/>
	<g>
		<path class="st2" d="M0.12,11.22c-23.08,0-41.79-5.53-41.79-12.36c0-6.83,18.71-12.36,41.79-12.36c23.08,0,41.79,5.53,41.79,12.36
			C41.91,5.69,23.2,11.22,0.12,11.22z M-2.65-12.17c-20.6,0-37.3,4.94-37.3,11.03c0,6.09,16.7,11.03,37.3,11.03
			c20.6,0,37.3-4.94,37.3-11.03C34.65-7.23,17.95-12.17-2.65-12.17z"/>
		<path class="st2" d="M-19.83-9.88c16.32-16.31,33.47-25.63,38.29-20.8C23.29-25.85,13.97-8.71-2.35,7.6
			c-16.32,16.32-33.47,25.63-38.29,20.8C-45.47,23.58-36.16,6.44-19.83-9.88z M-1.33,4.71C13.23-9.85,21.55-25.15,17.24-29.46
			c-4.31-4.31-19.61,4-34.18,18.57C-31.51,3.67-39.82,18.97-35.51,23.28C-31.21,27.58-15.9,19.27-1.33,4.71z"/>
		<path class="st2" d="M-1.42-8.48C14.9,7.84,24.22,24.98,19.39,29.8C14.56,34.63-2.58,25.32-18.9,9
			C-35.22-7.31-44.54-24.45-39.71-29.28C-34.88-34.11-17.74-24.79-1.42-8.48z M-16.01,10.01c14.57,14.56,29.87,22.87,34.18,18.57
			c4.31-4.31-4-19.6-18.57-34.17c-14.57-14.56-29.87-22.87-34.18-18.57C-38.89-19.85-30.58-4.55-16.01,10.01z"/>
		<path class="st9" d="M0.12,11.22c-23.08,0-41.79-5.53-41.79-12.36c0-6.83,18.71-12.36,41.79-12.36c23.08,0,41.79,5.53,41.79,12.36
			C41.91,5.69,23.2,11.22,0.12,11.22z M-2.65-12.17c-20.6,0-37.3,4.94-37.3,11.03c0,6.09,16.7,11.03,37.3,11.03
			c20.6,0,37.3-4.94,37.3-11.03C34.65-7.23,17.95-12.17-2.65-12.17z"/>
		<path class="st9" d="M-19.83-9.88c16.32-16.31,33.47-25.63,38.29-20.8C23.29-25.85,13.97-8.71-2.35,7.6
			c-16.32,16.32-33.47,25.63-38.29,20.8C-45.47,23.58-36.16,6.44-19.83-9.88z M-1.33,4.71C13.23-9.85,21.55-25.15,17.24-29.46
			c-4.31-4.31-19.61,4-34.18,18.57C-31.51,3.67-39.82,18.97-35.51,23.28C-31.21,27.58-15.9,19.27-1.33,4.71z"/>
		<path class="st9" d="M-1.42-8.48C14.9,7.84,24.22,24.98,19.39,29.8C14.56,34.63-2.58,25.32-18.9,9
			C-35.22-7.31-44.54-24.45-39.71-29.28C-34.88-34.11-17.74-24.79-1.42-8.48z M-16.01,10.01c14.57,14.56,29.87,22.87,34.18,18.57
			c4.31-4.31-4-19.6-18.57-34.17c-14.57-14.56-29.87-22.87-34.18-18.57C-38.89-19.85-30.58-4.55-16.01,10.01z"/>
		
			<radialGradient id="SVGID_7_" cx="16326.3359" cy="-15833.4463" r="4.2523" gradientTransform="matrix(-0.9999 0 0 -0.9996 16312.1211 -15830.8574)" gradientUnits="userSpaceOnUse">
			<stop  offset="0" style="stop-color:#00AAE8"/>
			<stop  offset="0.25" style="stop-color:#008ACF"/>
			<stop  offset="0.5" style="stop-color:#2B3A8F"/>
			<stop  offset="0.75" style="stop-color:#402D72"/>
			<stop  offset="1" style="stop-color:#05000B"/>
		</radialGradient>
		<path class="st10" d="M-15.73-2.35c0,1.54,1.25,2.8,2.79,2.8c1.54,0,2.8-1.25,2.8-2.8c0-1.54-1.25-2.79-2.8-2.79
			C-14.48-5.14-15.73-3.89-15.73-2.35z"/>
		<path class="st11" d="M-4.86,2.71c-0.83,0-1.58-0.3-2.19-0.78c0.26,0.49,0.42,1.04,0.42,1.63c0,1.94-1.58,3.52-3.52,3.52
			c-1.3,0-2.42-0.71-3.03-1.76c-0.58,0.42-1.28,0.67-2.05,0.67c-1.94,0-3.52-1.57-3.52-3.52c0-1.23,0.63-2.31,1.59-2.94
			c-0.57-0.62-0.92-1.45-0.92-2.36c0-1.94,1.58-3.52,3.52-3.52c1.1,0,2.06,0.51,2.71,1.3c0.6-1.09,1.74-1.83,3.07-1.83
			c1.63,0,2.98,1.11,3.38,2.61c0.18-0.03,0.35-0.05,0.54-0.05c1.94,0,3.52,1.58,3.52,3.52C-1.34,1.14-2.92,2.71-4.86,2.71z
			 M-11.49-1.13c-0.28,0.5-0.66,0.94-1.14,1.25c0.17,0.18,0.31,0.38,0.43,0.6c0.58-0.42,1.28-0.67,2.05-0.67
			c0.83,0,1.58,0.3,2.18,0.78C-8.08,0.6-8.18,0.36-8.25,0.11C-8.42,0.14-8.6,0.16-8.78,0.16C-9.88,0.16-10.85-0.35-11.49-1.13z"/>
		
			<radialGradient id="SVGID_8_" cx="16328.5469" cy="-15837.9082" r="5.3519" gradientTransform="matrix(-0.9999 0 0 -0.9996 16312.1211 -15830.8574)" gradientUnits="userSpaceOnUse">
			<stop  offset="0" style="stop-color:#FFFAD2"/>
			<stop  offset="0.1146" style="stop-color:#FCF2C1"/>
			<stop  offset="0.3413" style="stop-color:#F3DF94"/>
			<stop  offset="0.3708" style="stop-color:#F2DC8E"/>
			<stop  offset="0.6854" style="stop-color:#F0BF00"/>
			<stop  offset="1" style="stop-color:#C9961A"/>
		</radialGradient>
		<path class="st12" d="M-18.75,2.48c0,1.94,1.58,3.52,3.52,3.52c1.94,0,3.52-1.57,3.52-3.52c0-1.94-1.58-3.52-3.52-3.52
			C-17.18-1.04-18.75,0.53-18.75,2.48z"/>
		
			<radialGradient id="SVGID_9_" cx="16327.876" cy="-15832.6104" r="5.3509" gradientTransform="matrix(-0.9999 0 0 -0.9996 16312.1211 -15830.8574)" gradientUnits="userSpaceOnUse">
			<stop  offset="0" style="stop-color:#00AAE8"/>
			<stop  offset="0.25" style="stop-color:#008ACF"/>
			<stop  offset="0.5" style="stop-color:#2B3A8F"/>
			<stop  offset="0.75" style="stop-color:#402D72"/>
			<stop  offset="1" style="stop-color:#05000B"/>
		</radialGradient>
		<path class="st13" d="M-18.08-2.82c0,1.94,1.58,3.52,3.52,3.52s3.52-1.57,3.52-3.52c0-1.94-1.58-3.52-3.52-3.52
			S-18.08-4.76-18.08-2.82z"/>
		
			<radialGradient id="SVGID_10_" cx="16323.4639" cy="-15838.9971" r="5.3521" gradientTransform="matrix(-0.9999 0 0 -0.9996 16312.1211 -15830.8574)" gradientUnits="userSpaceOnUse">
			<stop  offset="0" style="stop-color:#00AAE8"/>
			<stop  offset="0.25" style="stop-color:#008ACF"/>
			<stop  offset="0.5" style="stop-color:#2B3A8F"/>
			<stop  offset="0.75" style="stop-color:#402D72"/>
			<stop  offset="1" style="stop-color:#05000B"/>
		</radialGradient>
		<path class="st14" d="M-13.67,3.56c0,1.94,1.58,3.52,3.52,3.52c1.94,0,3.52-1.58,3.52-3.52c0-1.94-1.58-3.52-3.52-3.52
			C-12.09,0.04-13.67,1.62-13.67,3.56z"/>
		
			<radialGradient id="SVGID_11_" cx="16318.1758" cy="-15834.6289" r="5.3518" gradientTransform="matrix(-0.9999 0 0 -0.9996 16312.1211 -15830.8574)" gradientUnits="userSpaceOnUse">
			<stop  offset="0" style="stop-color:#00AAE8"/>
			<stop  offset="0.25" style="stop-color:#008ACF"/>
			<stop  offset="0.5" style="stop-color:#2B3A8F"/>
			<stop  offset="0.75" style="stop-color:#402D72"/>
			<stop  offset="1" style="stop-color:#05000B"/>
		</radialGradient>
		<path class="st15" d="M-8.38-0.8c0,1.94,1.57,3.52,3.52,3.52c1.94,0,3.52-1.57,3.52-3.52c0-1.94-1.58-3.52-3.52-3.52
			C-6.81-4.32-8.38-2.75-8.38-0.8z"/>
		
			<radialGradient id="SVGID_12_" cx="16322.0957" cy="-15832.0771" r="5.3521" gradientTransform="matrix(-0.9999 0 0 -0.9996 16312.1211 -15830.8574)" gradientUnits="userSpaceOnUse">
			<stop  offset="0.1798" style="stop-color:#F8F0E4"/>
			<stop  offset="0.5899" style="stop-color:#F2D78F"/>
			<stop  offset="1" style="stop-color:#C58511"/>
		</radialGradient>
		<path class="st16" d="M-12.3-3.35c0,1.95,1.58,3.52,3.52,3.52c1.94,0,3.52-1.57,3.52-3.52c0-1.94-1.58-3.52-3.52-3.52
			C-10.73-6.87-12.3-5.3-12.3-3.35z"/>
	</g>
	
		<radialGradient id="SVGID_13_" cx="16304.4385" cy="-15829.8086" r="3.8901" gradientTransform="matrix(-0.9999 0 0 -0.9996 16312.1211 -15830.8574)" gradientUnits="userSpaceOnUse">
		<stop  offset="0" style="stop-color:#00AAE8"/>
		<stop  offset="0.25" style="stop-color:#008ACF"/>
		<stop  offset="0.5" style="stop-color:#2B3A8F"/>
		<stop  offset="0.75" style="stop-color:#402D72"/>
		<stop  offset="1" style="stop-color:#05000B"/>
	</radialGradient>
	<path class="st17" d="M6.44-6.1c0,1.41,1.14,2.56,2.56,2.56c1.41,0,2.56-1.14,2.56-2.56c0-1.41-1.14-2.56-2.56-2.56
		C7.58-8.66,6.44-7.51,6.44-6.1z"/>
	
		<radialGradient id="SVGID_14_" cx="16345.7607" cy="-15842.0586" r="3.8901" gradientTransform="matrix(-0.9999 0 0 -0.9996 16312.1211 -15830.8574)" gradientUnits="userSpaceOnUse">
		<stop  offset="0" style="stop-color:#00AAE8"/>
		<stop  offset="0.25" style="stop-color:#008ACF"/>
		<stop  offset="0.5" style="stop-color:#2B3A8F"/>
		<stop  offset="0.75" style="stop-color:#402D72"/>
		<stop  offset="1" style="stop-color:#05000B"/>
	</radialGradient>
	<path class="st18" d="M-34.88,6.14c0,1.41,1.14,2.56,2.56,2.56c1.41,0,2.56-1.15,2.56-2.56c0-1.41-1.15-2.56-2.56-2.56
		C-33.74,3.59-34.88,4.73-34.88,6.14z"/>
	
		<radialGradient id="SVGID_15_" cx="16302.5537" cy="-15865.3438" r="3.8891" gradientTransform="matrix(-0.9999 0 0 -0.9996 16312.1211 -15830.8574)" gradientUnits="userSpaceOnUse">
		<stop  offset="0" style="stop-color:#00AAE8"/>
		<stop  offset="0.25" style="stop-color:#008ACF"/>
		<stop  offset="0.5" style="stop-color:#2B3A8F"/>
		<stop  offset="0.75" style="stop-color:#402D72"/>
		<stop  offset="1" style="stop-color:#05000B"/>
	</radialGradient>
	<path class="st19" d="M8.32,29.42c0,1.41,1.14,2.56,2.56,2.56c1.41,0,2.56-1.14,2.56-2.56c0-1.41-1.14-2.56-2.56-2.56
		C9.46,26.86,8.32,28.01,8.32,29.42z"/>
</symbol>
<use xlink:href="#ﾃ》omo_1"  width="83.92" height="83.7" x="-41.96" y="-41.85" transform="matrix(7.3999 0 0 -7.419 600.5 394.5033)" style="overflow:visible;"/>
<use xlink:href="#ﾃ》omo_2"  width="94.03" height="74.16" x="-47.02" y="-37.08" transform="matrix(3.0282 0 0 -3.0227 714.0991 453.5719)" style="overflow:visible;"/>
</svg>
